<?xml version="1.0" encoding="UTF-8"?>
<svg width="39px" height="31px" viewBox="0 0 39 31" version="1.1" xmlns="http://www.w3.org/2000/svg" xmlns:xlink="http://www.w3.org/1999/xlink">
    <title>Ikon_sko</title>
    <g id="Page-1" stroke="none" stroke-width="1" fill="none" fill-rule="evenodd">
        <g id="A0" transform="translate(-1547.000000, -994.000000)">
            <g id="Ikon_sko" transform="translate(1547.000000, 994.000000)">
                <g id="Group_179" transform="translate(3.035000, 0.700000)" fill="#000100" fill-rule="nonzero">
                    <g id="Group_178">
                        <path d="M17,6.7 L13.3,7.7 C12.6,7.9 12.9,7.7 12.4,7.3 L11.3,6.4 C10.8,6 10.6,5.3 10.9,4.7 C11.4,3.6 11.2,2.3 10.6,1.4 L10.6,1.4 L9.6,0.5 L9.2,1 L2.3,7.4 C0.4,9.1 0.3,12.1 2,13.9 C2,13.9 2,13.9 2,13.9 C2,13.9 2.1,14 2.2,14.1 L16.9,29.1 C17,29.2 17.2,29.3 17.4,29.3 L33.4,29.3 C33.8,29.3 34.1,29 34.1,28.7 C34.1,28.7 34.1,28.7 34.1,28.7 L34.1,26.7 C34.1,23 31.1,20 27.4,20 L24.5,20 L18.2,7.5 M9.6,2.3 C9.9,2.9 9.9,3.5 9.7,4.1 C9.6,4.4 9.5,4.7 9.5,5 L8,3.9 L9.6,2.3 Z M2.8,8.7 C2.9,8.5 3.1,8.3 3.3,8.2 L7,4.7 L10.5,7.4 L11.5,8.2 C12.4,8.9 12.5,9.2 13.7,8.9 L17.1,8 L23.5,20.9 C23.6,21.1 23.8,21.3 24.1,21.2 L27.4,21.2 C30.3,21.2 32.7,23.6 32.8,26.5 C32.8,26.5 32.8,26.5 32.8,26.5 L32.8,27.8 L17.7,27.8 L3.2,12.9 C2.4,12.1 2,11 2.2,9.9" id="Path_185"></path>
                    </g>
                </g>
                <g id="Group_181" transform="translate(6.703000, 24.586000)" fill="#D70D32" fill-rule="nonzero">
                    <g id="Group_180">
                        <rect id="Rectangle_84" x="0.5" y="0.9" width="6.9" height="1.1"></rect>
                    </g>
                </g>
                <g id="Group_183" transform="translate(4.796000, 20.895000)" fill="#D70D32" fill-rule="nonzero">
                    <g id="Group_182">
                        <rect id="Rectangle_85" x="0.1" y="0" width="4.6" height="1.1"></rect>
                    </g>
                </g>
                <g id="Group_185" transform="translate(1.889000, 20.895000)" fill="#D70D32" fill-rule="nonzero">
                    <g id="Group_184">
                        <rect id="Rectangle_86" x="0.7" y="0" width="1.1" height="1.1"></rect>
                    </g>
                </g>
                <g id="Group_187" transform="translate(4.796000, 24.586000)" fill="#D70D32" fill-rule="nonzero">
                    <g id="Group_186">
                        <rect id="Rectangle_87" x="0.1" y="0.9" width="1.1" height="1.1"></rect>
                    </g>
                </g>
                <g id="Group_189" transform="translate(0.935000, 28.446000)" fill="#D70D32" fill-rule="nonzero">
                    <g id="Group_188">
                        <rect id="Rectangle_88" x="0.5" y="0.5" width="9.2" height="1.1"></rect>
                    </g>
                </g>
                <path d="M10.235,7.2 L7.435,9.6 C6.435,10.8 6.435,12.6 7.635,13.7 L21.135,27.5 L34.235,27.5 L34.235,27.4 C34.235,25.1 32.435,23.3 30.135,23.3 C30.135,23.3 30.135,23.3 30.135,23.3 L26.635,23.3 C26.235,23.3 25.935,23.1 25.735,22.8 L19.335,10.4 L16.935,11 C15.335,11.5 14.535,11.1 13.235,9.9 L10.235,7.2 Z" id="Path_186" fill="#5AAD9E" fill-rule="nonzero"></path>
                <line x1="18.835" y1="13.3" x2="22.235" y2="11.9" id="Line_57" stroke="#FFFFFF"></line>
                <line x1="19.935" y1="15.7" x2="23.235" y2="14.3" id="Line_58" stroke="#FFFFFF"></line>
                <line x1="21.335" y1="18.2" x2="24.735" y2="16.7" id="Line_59" stroke="#FFFFFF"></line>
                <g id="Group_191" transform="translate(3.035000, 0.700000)" fill="#5E5D5D" fill-rule="nonzero">
                    <g id="Group_190">
                        <path d="M17,6.7 L13.3,7.7 C12.6,7.9 12.9,7.7 12.4,7.3 L11.3,6.4 C10.8,6 10.6,5.3 10.9,4.7 C11.4,3.6 11.2,2.3 10.6,1.4 L10.6,1.4 L9.6,0.5 L9.2,1 L2.3,7.4 C0.4,9.1 0.3,12.1 2,13.9 C2,13.9 2,13.9 2,13.9 C2,13.9 2.1,14 2.2,14.1 L16.9,29.1 C17,29.2 17.2,29.3 17.4,29.3 L33.4,29.3 C33.8,29.3 34.1,29 34.1,28.7 C34.1,28.7 34.1,28.7 34.1,28.7 L34.1,26.7 C34.1,23 31.1,20 27.4,20 L24.5,20 L18.2,7.5 M9.6,2.3 C9.9,2.9 9.9,3.5 9.7,4.1 C9.6,4.4 9.5,4.7 9.5,5 L8,3.9 L9.6,2.3 Z M2.8,8.7 C2.9,8.5 3.1,8.3 3.3,8.2 L7,4.7 L10.5,7.4 L11.5,8.2 C12.4,8.9 12.5,9.2 13.7,8.9 L17.1,8 L23.5,20.9 C23.6,21.1 23.8,21.3 24.1,21.2 L27.4,21.2 C30.3,21.2 32.7,23.6 32.8,26.5 C32.8,26.5 32.8,26.5 32.8,26.5 L32.8,27.8 L17.7,27.8 L3.2,12.9 C2.4,12.1 2,11 2.2,9.9" id="Path_187"></path>
                    </g>
                </g>
            </g>
        </g>
    </g>
</svg>