<?xml version="1.0" encoding="UTF-8"?>
<svg width="72px" height="76px" viewBox="0 0 72 76" version="1.1" xmlns="http://www.w3.org/2000/svg" xmlns:xlink="http://www.w3.org/1999/xlink">
    <title>Ikon_stjerne</title>
    <g id="Page-1" stroke="none" stroke-width="1" fill="none" fill-rule="evenodd">
        <g id="Ikon_stjerne" fill="#FDD83F" fill-rule="nonzero">
            <path d="M71,20.8 C70.6,20.2 70,19.9 69.3,20 L45,24.5 L31.7,1.5 C31.2,0.7 30.3,0.4 29.5,0.9 C29.1,1.1 28.8,1.6 28.8,2.1 L26.8,28.1 L1.8,33 C1,33.2 0.4,34 0.6,34.9 C0.7,35.4 1.1,35.9 1.5,36.1 L25.1,47.4 L23.1,73.4 C23,74.3 23.7,75.1 24.5,75.2 C25,75.3 25.5,75.1 25.8,74.7 L42.5,55.5 L66.1,66.8 C66.9,67.2 67.8,66.8 68.1,66 C68.3,65.5 68.2,65 68,64.5 L54.7,41.5 L70.7,22.7 C71.3,22.2 71.4,21.4 71,20.8" id="Path"></path>
        </g>
    </g>
</svg>