<?xml version="1.0" encoding="utf-8"?>
<!-- Generator: Adobe Illustrator 25.0.0, SVG Export Plug-In . SVG Version: 6.00 Build 0)  -->
<svg version="1.1" id="Layer_1" xmlns="http://www.w3.org/2000/svg" xmlns:xlink="http://www.w3.org/1999/xlink" x="0px" y="0px"
	 viewBox="0 0 500 500" style="enable-background:new 0 0 500 500;" xml:space="preserve">
<style type="text/css">
	.st0{clip-path:url(#SVGID_2_);fill:#FDD83F;}
</style>
<g>
	<defs>
		<rect id="SVGID_1_" x="214.5" y="212.7" width="70.7" height="74.6"/>
	</defs>
	<clipPath id="SVGID_2_">
		<use xlink:href="#SVGID_1_"  style="overflow:visible;"/>
	</clipPath>
	<path class="st0" d="M285,232.8c-0.4-0.6-1-0.9-1.7-0.8l-24.3,4.5l-13.3-23c-0.5-0.8-1.4-1.1-2.2-0.6c-0.4,0.2-0.7,0.7-0.7,1.2
		l-2,26l-25,4.9c-0.8,0.2-1.4,1-1.2,1.9c0.1,0.5,0.5,1,0.9,1.2l23.6,11.3l-2,26c-0.1,0.9,0.6,1.7,1.4,1.8c0.5,0.1,1-0.1,1.3-0.5
		l16.7-19.2l23.6,11.3c0.8,0.4,1.7,0,2-0.8c0.2-0.5,0.1-1-0.1-1.5l-13.3-23l16-18.8C285.3,234.2,285.4,233.4,285,232.8"/>
</g>
</svg>
