<?xml version="1.0" encoding="UTF-8"?>
<svg width="69px" height="46px" viewBox="0 0 69 46" version="1.1" xmlns="http://www.w3.org/2000/svg" xmlns:xlink="http://www.w3.org/1999/xlink">
    <title>Logo_Act4yourheart</title>
    <g id="Page-1" stroke="none" stroke-width="1" fill="none" fill-rule="evenodd">
        <g id="A0" transform="translate(-2035.000000, -1096.000000)">
            <g id="Logo_Act4yourheart" transform="translate(2035.000000, 1096.000000)">
                <path d="M7.3,43 L7.3,43 C7.3,41.5 8.4,40.3 10,40.3 C11,40.3 11.6,40.6 12,41.2 L11.1,42.1 C10.8,41.8 10.5,41.5 9.9,41.5 C9.2,41.5 8.7,42.1 8.7,42.9 L8.7,42.9 C8.7,43.7 9.2,44.3 10,44.3 C10.5,44.3 10.8,44.1 11.2,43.8 L12,44.7 C11.5,45.2 10.9,45.6 9.9,45.6 C8.4,45.6 7.3,44.5 7.3,43" id="Path" fill="#53B8A7" fill-rule="nonzero"></path>
                <path d="M13.2,44.1 L13.2,41.7 L12.6,41.7 L12.6,40.5 L13.2,40.5 L13.2,39.2 L14.6,39.2 L14.6,40.5 L15.8,40.5 L15.8,41.7 L14.6,41.7 L14.6,43.9 C14.6,44.2 14.7,44.4 15.1,44.4 C15.4,44.4 15.6,44.3 15.8,44.2 L15.8,45.4 C15.5,45.6 15.1,45.7 14.7,45.7 C13.8,45.6 13.2,45.3 13.2,44.1" id="Path" fill="#53B8A7" fill-rule="nonzero"></path>
                <path d="M20.5,44 L17.2,44 L17,43 L20.7,38.7 L21.9,38.7 L21.9,42.8 L22.8,42.8 L22.8,44 L21.9,44 L21.9,45.4 L20.5,45.4 L20.5,44 L20.5,44 Z M20.5,42.8 L20.5,40.7 L18.7,42.8 L20.5,42.8 Z" id="Shape" fill="#53B8A7" fill-rule="nonzero"></path>
                <path d="M36.5,18.5 C42,10.8 52.8,24.9 34.1,29.4 C38.8,30.4 47.9,26.2 47.1,19.3 C46.5,13.8 40.4,12 36.7,15.7 C28,9.2 22.6,20.7 28.7,24.6 C24.7,17 33.3,13 36.5,18.5" id="Path" fill="#E32C45"></path>
                <polygon id="Path" fill="#E32C45" fill-rule="nonzero" points="26.2 42.8 23.6 38.8 25.3 38.8 26.9 41.5 28.5 38.8 30.2 38.8 27.6 42.8 27.6 45.4 26.2 45.4"></polygon>
                <path d="M29.1,42.9 L29.1,42.9 C29.1,41.4 30.3,40.2 31.9,40.2 C33.5,40.2 34.7,41.4 34.7,42.8 L34.7,42.8 C34.7,44.3 33.5,45.4 31.9,45.4 C30.3,45.6 29.1,44.4 29.1,42.9 M33.2,42.9 L33.2,42.9 C33.2,42.1 32.7,41.5 31.9,41.5 C31.1,41.5 30.6,42.1 30.6,42.9 L30.6,42.9 C30.6,43.6 31.1,44.3 31.9,44.3 C32.7,44.3 33.2,43.7 33.2,42.9" id="Shape" fill="#E32C45" fill-rule="nonzero"></path>
                <path d="M35.1,43.6 L35.1,40.3 L36.5,40.3 L36.5,43.1 C36.5,43.8 36.8,44.1 37.4,44.1 C38,44.1 38.3,43.7 38.3,43.1 L38.3,40.3 L39.7,40.3 L39.7,45.4 L38.3,45.4 L38.3,44.7 C38,45.1 37.5,45.5 36.8,45.5 C35.8,45.5 35.1,44.8 35.1,43.6" id="Path" fill="#E32C45" fill-rule="nonzero"></path>
                <path d="M40.6,40.4 L42,40.4 L42,41.4 C42.3,40.7 42.8,40.2 43.6,40.3 L43.6,41.8 L43.5,41.8 C42.5,41.8 41.9,42.4 41.9,43.6 L41.9,45.5 L40.5,45.5 L40.5,40.4 L40.6,40.4 Z" id="Path" fill="#E32C45" fill-rule="nonzero"></path>
                <polygon id="Path" fill="#E32C45" fill-rule="nonzero" points="44.6 38.8 46.1 38.8 46.1 41.4 48.8 41.4 48.8 38.8 50.3 38.8 50.3 45.4 48.8 45.4 48.8 42.8 46.1 42.8 46.1 45.4 44.6 45.4"></polygon>
                <path d="M50.6,42.9 L50.6,42.9 C50.6,41.4 51.6,40.2 53.1,40.2 C54.8,40.2 55.6,41.5 55.6,43 C55.6,43.1 55.6,43.2 55.6,43.4 L52,43.4 C52.1,44.1 52.6,44.4 53.2,44.4 C53.7,44.4 54,44.2 54.4,43.9 L55.2,44.6 C54.7,45.2 54,45.5 53.1,45.5 C51.8,45.6 50.6,44.5 50.6,42.9 M54.2,42.5 C54.1,41.9 53.7,41.4 53.1,41.4 C52.5,41.4 52.1,41.8 52,42.5 L54.2,42.5 Z" id="Shape" fill="#E32C45" fill-rule="nonzero"></path>
                <path d="M55.9,44 L55.9,44 C55.9,42.9 56.7,42.4 58,42.4 C58.5,42.4 58.9,42.5 59.2,42.6 L59.2,42.5 C59.2,41.9 58.8,41.6 58.1,41.6 C57.5,41.6 57.2,41.7 56.7,41.9 L56.3,40.8 C56.9,40.6 57.4,40.4 58.3,40.4 C59.1,40.4 59.7,40.6 60,41 C60.4,41.4 60.6,41.9 60.6,42.6 L60.6,45.5 L59.2,45.5 L59.2,44.9 C58.8,45.3 58.4,45.5 57.7,45.5 C56.7,45.5 55.9,45 55.9,44 M59.2,43.6 L59.2,43.3 C59,43.2 58.6,43.1 58.3,43.1 C57.7,43.1 57.3,43.3 57.3,43.8 L57.3,43.8 C57.3,44.2 57.6,44.4 58.1,44.4 C58.8,44.5 59.2,44.2 59.2,43.6" id="Shape" fill="#E32C45" fill-rule="nonzero"></path>
                <path d="M61.3,40.4 L62.7,40.4 L62.7,41.4 C63,40.7 63.5,40.2 64.3,40.3 L64.3,41.8 L64.2,41.8 C63.2,41.8 62.6,42.4 62.6,43.6 L62.6,45.5 L61.2,45.5 L61.2,40.4 L61.3,40.4 Z" id="Path" fill="#E32C45" fill-rule="nonzero"></path>
                <path d="M65.5,44 L65.5,41.6 L64.9,41.6 L64.9,40.4 L65.5,40.4 L65.5,39.1 L66.9,39.1 L66.9,40.4 L68.1,40.4 L68.1,41.6 L66.9,41.6 L66.9,43.8 C66.9,44.1 67,44.3 67.4,44.3 C67.7,44.3 67.9,44.2 68.1,44.1 L68.1,45.3 C67.8,45.5 67.4,45.6 67,45.6 C66.1,45.5 65.5,45.2 65.5,44" id="Path" fill="#E32C45" fill-rule="nonzero"></path>
                <path d="M43.4,5.9 C48.7,9.3 51.5,15.8 50.5,22 C50.4,22.5 50.4,22.8 50.5,22.3 C50.9,20.8 51.1,19.3 51.1,17.7 C51.1,8.4 43.5,0.8 34.2,0.8 C24.9,0.8 17.3,8.4 17.3,17.7 C17.3,22.5 19.3,26.9 22.6,29.9 C25.6,32.8 29.7,34.5 34.2,34.5 C38.8,34.5 42.9,32.7 45.9,29.8 C46,29.7 46.1,29.6 46.2,29.5 C47.5,28.1 46.3,26.9 43.6,28.4 C39.2,31 31.8,30.8 31.6,29.5 C31.5,28.9 32.9,28.1 33.8,27.6 C37.9,25.7 33.2,25.1 29.7,26.5 C27,27.9 24.8,29 22.3,25.5 C20.8,23.2 19.9,20.5 19.9,17.5 C19.9,5.6 33.5,-0.5 43.4,5.9" id="Path" fill="#53B8A7"></path>
                <path d="M3.2,38.9 L4.6,38.9 L7.5,45.6 L6,45.6 L5.4,44.1 L2.6,44.1 L2,45.6 L0.5,45.6 L3.2,38.9 Z M4.8,42.8 L3.9,40.6 L3,42.8 L4.8,42.8 Z" id="Shape" fill="#53B8A7" fill-rule="nonzero"></path>
            </g>
        </g>
    </g>
</svg>