<?xml version="1.0" encoding="utf-8"?>
<!-- Generator: Adobe Illustrator 24.2.0, SVG Export Plug-In . SVG Version: 6.00 Build 0)  -->
<svg version="1.1" id="Layer_1" xmlns="http://www.w3.org/2000/svg" xmlns:xlink="http://www.w3.org/1999/xlink" x="0px" y="0px"
	 viewBox="0 0 657.8 198.6" style="enable-background:new 0 0 657.8 198.6;" xml:space="preserve">
<style type="text/css">
	.st0{fill:#003673;}
</style>
<g>
	<path class="st0" d="M118.8,50L95,31.6L71.2,50L66,43.2l29-22.6l29,22.6L118.8,50z M147.2,174.4v-55.6h9.4v38
		c4.6-5.6,9.6-12.6,13.4-19.2c7.2-12.8,11.2-26.6,11.2-42.6c0-48-38.6-87-86.2-87C47.4,8,8.8,47,8.8,95c0,16,3.8,29.8,11,42.4
		c4,6.8,8.8,13.8,13.4,19.4v-38h9.6v55.6C17,157.4,0,128.2,0,95C0,42.6,42.6,0,95,0s95,42.6,95,95C190,128.2,173,157.4,147.2,174.4z
		 M109.2,189.2V57h9.4v130C115.6,187.6,112.4,188.6,109.2,189.2z M128.2,184.2v-65.4h9.6v61C134.6,181.4,131.4,182.8,128.2,184.2z
		 M95,190c-1.6,0-3.2-0.2-4.8-0.2V57h9.4v132.8C98.2,189.8,96.6,190,95,190z M71.2,187V57h9.4v132C77.4,188.6,74.4,187.6,71.2,187z
		 M52.2,179.8v-61h9.4V184C58.4,182.8,55.2,181.4,52.2,179.8z"/>
	<path class="st0" d="M355.2,48.4H340c0.6-6,2-15,8.4-15C354.4,33.4,355,42.4,355.2,48.4z M365.4,53.2c-0.2-11.8-2.4-24.6-17.2-24.6
		C333.8,28.6,330,44,330,55.2c0,14.4,6.2,24.2,18,24.2c9.2,0,13.2-3.8,17.2-11.6l-4.4-1.8c-2,3.2-4.8,6.4-9,6.4
		c-9.8,0-11.4-11.2-11.8-19.2H365.4z M322.6,53.4c0-21.8-13.8-25-19.6-25c-14,0-19.8,14.4-19.8,26.2c0,15.6,8.4,24.8,19.2,24.8
		C313,79.4,322.6,70.4,322.6,53.4z M275.4,60c0-4.8-1.6-9.2-5-12.8c-3.2-3.4-6.8-4.6-10.8-5.4c5-2.2,12-6.8,12-16.4
		c0-3.8-1.6-8-4.2-11C262.4,9,254.8,9,251,9c-4.4,0-8.6,0.6-13,0.6h-12.2v4.2l6.8,1.2v58.2l-6.8,1.2v4h11.6c2.4,0,13.2,0.2,15.4,0.2
		c5.6,0,15,0.2,20.4-9C274.6,67,275.6,63.8,275.4,60z M347.8,138v-6l-11.6,0.4c-3.4,0-6.8-1.6-10.4-1.6c-9.6,0-17.2,6.6-17.2,16.6
		c0,8.4,5,11.6,8.2,13.6c-5.2,3.2-9,6.8-9,10.6c0,3.2,2.2,5.2,5.6,6.4c-3.6,2.2-7.8,5.4-7.8,10.4c0,7.4,9.2,10.2,17.6,10.2
		c15.4,0,24-7.6,24-17c0-8.6-5.2-11.4-13.8-11.8l-12.8-0.6c-0.8,0-3.4-0.4-3.4-1.8c0-1.6,1.8-3.2,3.8-4.6c1.8,0.6,3.8,0.8,5.6,0.8
		c7,0,16.6-4.8,16.6-16.2c0-3.8-1.4-6.4-3.6-9.6L347.8,138z M301,180.6v-4.2l-5.2-1.2v-31.4c0-7.6-4-12.6-12.2-12.6
		c-5.2,0-9.2,3-12.8,5.8v-6H268l-12.4,3.2v4l5.8,0.8v36.4l-5.8,1.2v4h20.6v-4.2l-5.2-1.2v-32.6c2.8-2.4,5.8-4.4,9.4-4.4
		c5.6,0,5.6,5.6,5.6,8.2v29.2l-5.2,1v4H301z M249,180.6v-4.2l-5.8-1.2V117l6-1.2v-4.2h-23v4.4l6.4,1v58.4l-6.4,1.2v4H249z
		 M311.8,53.2c0,6.4-0.8,21.2-9.4,21.2c-5.6,0-8.6-7.8-8.6-19.6c0-5.6,0.4-21.6,9.4-21.6C310.4,33.2,311.8,45,311.8,53.2z M260,26.6
		c0,13-7.8,13.4-12.4,13.4h-5V14.6c2.4-0.8,3.8-1.2,6.6-1.2C252.8,13.4,260,15,260,26.6z M264,59.4c0,5.2-1.8,10.2-6.2,12.6
		c-2.6,1.6-6,2.4-8.8,2.4c-2.6,0-4.6-0.4-6.4-1.6v-28h4.4C253.8,44.8,264,45.8,264,59.4z M332.8,147.8c0,4.8-0.8,11.2-6.8,11.2
		c-6.2,0-6.8-6.8-6.8-12c0-5,0.4-12,6.4-12C332,135,332.8,142.4,332.8,147.8z M340.2,185.4c0,4.4-6.4,7.8-14.6,7.8
		c-6,0-10.4-2.6-10.4-6.8c0-3.8,1.8-6,3.6-7.6c10.2,0.6,14.4,1,17.8,1.8C338.6,181,340.2,182,340.2,185.4z"/>
	<path class="st0" d="M499.2,150.6H484c0.6-6,2-15,8.4-15C498.4,135.6,499,144.6,499.2,150.6z M474.2,11.4c0-3.6-2.8-6.4-6.4-6.4
		c-3.6,0-6.4,2.8-6.4,6.4c0,3.6,2.8,6.4,6.4,6.4C471.4,17.8,474.2,15,474.2,11.4z M479,78.4v-4.2l-5.6-1V29.4H471l-12.6,3.2V36
		l5.4,1.2v36l-5.4,1.2v4H479z M453.4,35.4c0-4-2.6-5.8-5.8-5.8c-4.2,0-6.4,3.2-9.6,8.6V29h-3l-12,3.2v3.2l5.8,1v36.8l-5.8,1.2v4
		h22.2v-4.2l-7-1V47c0-1.6,2.2-6.6,6.2-8.4l5.2,2.8C451.2,40,453.4,38.4,453.4,35.4z M416.2,78.4v-4.2l-5.2-1V41.8
		c0-7.2-4-12.4-11.8-12.4c-5.4,0-9.4,3-13,5.8V5h-2.8L371,7.6V11l5.6,1.2v61l-6,1.2v4H391v-4.2l-4.8-1V41c2.8-2.4,5.4-4.4,9.2-4.4
		c5.8,0,5.8,5.8,5.8,9.8v27l-4.8,1v4H416.2z M467.6,180.6v-4.2l-5.4-1.2v-31.4c0-7.2-3.8-12.2-11.8-12.2c-5.4,0-9.4,2.8-13,5.8V107
		h-2.6l-12.6,2.8v3.4l5.6,1v61.2l-5.8,1.2v4h20.2v-4.2l-4.8-1.2v-32c2.8-2.4,5.6-4.6,9.4-4.6c5.6,0,5.6,5.8,5.6,9.8v27.2l-4.8,1v4
		H467.6z M415.4,180.6v-4.2l-5.4-1.2V107h-2.6l-12.6,2.8v3.4l5.6,0.6v61.6l-5.8,1.2v4H415.4z M509.4,155.4
		c-0.2-11.8-2.4-24.6-17.2-24.6c-14.4,0-18.2,15.4-18.2,26.6c0,14.4,6.2,24.2,18,24.2c9.2,0,13.2-3.8,17.2-11.6l-4.4-1.8
		c-2,3.2-4.8,6.4-9,6.4c-9.8,0-11.4-11.2-11.8-19.2H509.4z M388.8,155.4c-0.2-11.8-2.4-24.6-17.2-24.6c-14.4,0-18.2,15.4-18.2,26.6
		c0,14.4,6.2,24.2,18,24.2c9.2,0,13.2-3.8,17.2-11.6l-4.4-1.8c-2,3.2-4.8,6.4-9,6.4c-9.8,0-11.4-11.2-11.8-19.2H388.8z M378.6,150.6
		h-15.2c0.6-6,2-15,8.4-15C377.8,135.6,378.4,144.6,378.6,150.6z"/>
	<path class="st0" d="M563.2,45.6c0,5-0.8,11.2-6.8,11.2c-6.2,0-6.8-6.6-6.8-12c0-5,0.4-11.8,6.4-11.8
		C562.4,33,563.2,40.2,563.2,45.6z M657.8,35.4c0-4-2.8-5.8-5.8-5.8c-4.2,0-6.6,3.2-9.8,8.6V29h-2.8l-12.2,3.2v3.2l5.8,1v36.8
		l-5.8,1.2v4h22.2v-4.2l-7-1V47c0-1.6,2.4-6.6,6.4-8.4l5.2,2.8C655.4,40,657.8,38.4,657.8,35.4z M578,35.8v-6l-11.4,0.4
		c-3.4,0-6.8-1.6-10.4-1.6c-9.4,0-17,6.6-17,16.6c0,8.4,4.8,11.8,8.2,13.8c-5.2,3.2-9.2,6.6-9.2,10.4c0,3.4,2.2,5.4,5.6,6.4
		c-3.6,2.4-7.8,5.4-7.8,10.4c0,7.4,9.2,10.2,17.8,10.2c15.2,0,24-7.6,24-16.8c0-8.8-5.6-11.8-14-12L551,67.2c-0.8,0-3.4-0.6-3.4-2.2
		c0-1.2,1.8-2.8,3.8-4.2c1.8,0.4,3.8,0.8,5.6,0.8c7,0,16.6-5,16.6-16.2c0-4-1.4-6.6-3.6-9.8L578,35.8z M531.4,78.4v-4.2l-5.2-1V41.8
		c0-7.8-4-12.6-12.2-12.6c-5.2,0-9.2,2.8-12.8,5.8v-6h-2.8L486,32.2v4l5.8,0.6v36.4l-5.8,1.2v4h20.4v-4.2l-5-1V40.6
		c2.8-2.4,5.6-4.6,9.4-4.6c5.4,0,5.6,5.8,5.6,8.2v29.2l-5.2,1v4H531.4z M616.4,180.6v-4.2l-5.6-1.2v-31.6c0-8-4.8-12-12.6-12
		c-5.4,0-9.6,2.8-13.4,6.6c-2.2-4.2-6.4-6.4-11.2-6.4c-5,0-9.6,2.2-13.6,5.8V131h-2.6l-12.6,3.2v3.4l5.8,1v36.8l-5.8,1.2v4h20.4
		v-4.2l-4.6-1.2V143c2.2-2.2,4.8-4.6,9.2-4.6c5.2,0,6.2,4.6,6.2,8.4v28.6l-5.6,1.2v4h20.2v-4.2l-5-1.2v-32c2.8-2.6,5.6-4.8,9.4-4.8
		c5.6,0,6,5.6,6,8.2v28.8l-5.4,1.2v4H616.4z M533.2,113.4c0-3.4-2.6-6.4-6.2-6.4c-3.6,0-6.6,3-6.6,6.6c0,3.4,2.8,6.4,6.4,6.4
		C530.4,120,533.2,117,533.2,113.4z M538,180.6v-4.2l-5.6-1.2v-43.6H530l-12.6,3.2v3.2l5.4,1.2v36.2l-5.4,1.2v4H538z M570.6,83.2
		c0,4.4-6.4,7.8-14.6,7.8c-6,0-10.4-2.4-10.4-6.8c0-3.8,2-5.8,3.6-7.6c10.4,0.6,14.6,1.2,17.8,1.8C569,78.8,570.6,79.8,570.6,83.2z
		 M619,53.2c-0.2-11.8-2.4-24.6-17.2-24.6c-14.4,0-18.2,15.4-18.2,26.6c0,14.4,6.2,24.2,18,24.2c9.2,0,13.2-3.8,17.2-11.6l-4.4-1.8
		c-2,3.2-4.8,6.4-9,6.4c-9.8,0-11.4-11.2-11.8-19.2H619z M608.8,48.4h-15.2c0.6-6,2-15,8.4-15C608,33.4,608.6,42.4,608.8,48.4z"/>
</g>
</svg>
