<svg id="Layer_1" data-name="Layer 1" xmlns="http://www.w3.org/2000/svg" viewBox="0 0 569.63 265.17"><defs><style>.cls-1,.cls-2{fill:#fff;}.cls-2{stroke:#fff;stroke-miterlimit:10;stroke-width:5px;}.cls-3{fill:#272727;}</style></defs><path class="cls-1" d="M520.84,370.71h36.88c30.86,0,49.32-14.53,49.32-34.74,0-13.19-9.23-20.7-20.8-24.21,16.6-3.34,29.35-14,29.35-30.73,0-16.53-13.42-27.22-36.4-27.22H548.44s-7,0-7,6.05,4.11,6.07,9.55,6l27.06-.22c15.26,0,24,6,24,17,0,14-13.42,23.21-34.38,23.21h-30c-1.31,0-8.5-.22-8.72,6.35s8.43,5.46,8.43,5.46c36.32-.13,29.31-.12,29.31-.12,15.77,0,27,6,27,17.87,0,14.53-13.25,23.38-34.39,23.38H520c-1.69,0-6,.42-6,6.29C514,370.71,517,370.71,520.84,370.71Z" transform="translate(-340.15 -251.81)"/><path class="cls-1" d="M660.58,253c-3.52,0-6.21,2.33-7.21,6.34l-28.18,104c-1.34,5.18,1.51,8.19,5.53,8.19,3.53,0,6.21-2.34,7.38-6.35l28-104C667.46,256,664.61,253,660.58,253Z" transform="translate(-340.15 -251.81)"/><path class="cls-1" d="M756,348.67l-45.12-89.52c-1.85-3.5-4.36-5.84-8.22-5.84H702c-4,0-6.71,2.5-7.72,6.51l-28,103.54c-1.34,5.18,1.34,8.19,5.37,8.19,3.52,0,6-2.34,7.21-6.35l24.66-91.52L750.25,366c1.52,3.18,3.53,5.18,7.22,5.18h.33c3.53,0,8.33-3.15,4.25-10.52" transform="translate(-340.15 -251.81)"/><path class="cls-1" d="M839.38,251.81c-38.75,0-68.43,34.23-68.43,70.3,0,28.56,21.13,50.77,51.49,50.77,38.75,0,68.44-34.23,68.44-70.47C890.88,274,869.74,251.81,839.38,251.81Zm-16.1,108.88c-23.49,0-38.41-16.87-38.41-38.91,0-29.06,23-57.78,53.67-57.78C862,264,877,280.86,877,302.91,877,332,854,360.69,823.28,360.69Z" transform="translate(-340.15 -251.81)"/><rect class="cls-2" x="2.5" y="200.79" width="112.01" height="6.81" rx="3.41"/><rect class="cls-2" x="75.9" y="255.01" width="22.54" height="6.81" rx="3.41"/><rect class="cls-2" x="56.02" y="173.85" width="25.29" height="6.81" rx="3.41"/><rect class="cls-2" x="93.47" y="173.85" width="14.22" height="6.81" rx="3.41"/><rect class="cls-2" x="17.43" y="228" width="28.28" height="6.81" rx="3.41"/><rect class="cls-2" x="58.5" y="228" width="34.79" height="6.81" rx="3.41"/><rect class="cls-2" x="100.37" y="149.41" width="37.88" height="6.81" rx="3.41"/><path class="cls-3" d="M941.57,398.6" transform="translate(-340.15 -251.81)"/><path class="cls-1" d="M694.17,404.62c1.75-6.17,8.36-6.06,12.71-6.06l34.72,0a6.3,6.3,0,0,1,6.2,6.2,6.16,6.16,0,0,1-6.2,6H705.88l-26.67,99.61c-1.17,4-3.85,6.37-7.38,6.37-4,0-6.87-3-5.53-8.21l24.88-92.38" transform="translate(-340.15 -251.81)"/><path class="cls-1" d="M776.17,398.4c-3.52,0-6.2,2.34-7.21,6.35l-28.18,104c-1.34,5.18,1.51,8.18,5.54,8.18,3.52,0,6.2-2.33,7.38-6.34l28-104C783.05,401.41,780.2,398.4,776.17,398.4Z" transform="translate(-340.15 -251.81)"/><path class="cls-1" d="M836.29,511c-2.33,3.49-5.16,6-9.15,6h-.66c-3.83,0-5.82-2.5-6.49-6.16L803.53,408.06a13.73,13.73,0,0,1-.5-3.5c0-3.49,2.83-6.15,6.82-6.15,4.16,0,6.48,2.5,7,6.32l14,94.61,66-96.27c1.83-3,4.16-4.66,7.15-4.66,3.16,0,5.82,1.66,5.82,5a8.35,8.35,0,0,1-1.66,4.66Z" transform="translate(-340.15 -251.81)"/><path class="cls-1" d="M512.43,398.4c3.52,0,6.2,2.34,7.21,6.35l28.18,104c1.34,5.18-1.51,8.18-5.54,8.18-3.52,0-6.2-2.33-7.38-6.34l-28-104C505.55,401.41,508.4,398.4,512.43,398.4Z" transform="translate(-340.15 -251.81)"/><rect class="cls-2" x="122.3" y="223.85" width="70.56" height="7.14" rx="3.57"/><path class="cls-1" d="M666.37,398.4a8,8,0,0,0-5.5,2.51l-49.06,40.16-33.68,27.56,16.51-62.05c1.34-5.17-1.5-8.18-5.5-8.18-3.5,0-6.17,2.34-7.17,6.34,0,0-18,67.25-18.56,69-3.2,10.46,7.81,14.49,14,9.45l30-24.6L635,512.17a7.32,7.32,0,0,0,6.84,4.67,6.45,6.45,0,0,0,6.51-6.17A11,11,0,0,0,647,506l-28.69-54.88,51.38-41.54a6.65,6.65,0,0,0,2.67-5.17A5.79,5.79,0,0,0,666.37,398.4Z" transform="translate(-340.15 -251.81)"/></svg>