<?xml version="1.0" encoding="utf-8"?>
<!-- Generator: Adobe Illustrator 25.0.0, SVG Export Plug-In . SVG Version: 6.00 Build 0)  -->
<svg version="1.1" id="Capa_1" xmlns="http://www.w3.org/2000/svg" xmlns:xlink="http://www.w3.org/1999/xlink" x="0px" y="0px"
	 viewBox="0 0 512 512" style="enable-background:new 0 0 512 512;" xml:space="preserve">
<style type="text/css">
	.st0{fill:#D9203D;}
	.st1{fill:#5AAD9E;}
	.st2{fill:#FFFFFF;}
	.st3{fill:none;}
	.st4{font-family:'Gotham-Bold';}
	.st5{font-size:250px;}
</style>
<path class="st0" d="M155,337.5l-20.3,1L95.4,451.6c-1.3,3.6,1.7,7.3,5.5,6.9l55.2-5.8c1.5-0.2,3.1,0.4,4.2,1.5L200,493
	c2.7,2.7,7.3,1.6,8.6-2L248,377.1l-11.7-11.3L155,337.5z"/>
<path class="st0" d="M357,337.5l20.3,1l39.4,113.1c1.3,3.6-1.7,7.3-5.5,6.9l-55.2-5.8c-1.5-0.2-3.1,0.4-4.2,1.5L312.1,493
	c-2.7,2.7-7.3,1.6-8.6-2L264,377.1l11.7-11.3L357,337.5z"/>
<path class="st1" d="M256,377.5C70.1,377.5,70.2,197,70.4,193.9C75.3,95.6,156.5,17.4,256,17.4s180.7,78.2,185.6,176.5
	C441.8,197,441.9,377.5,256,377.5z"/>
<path class="st2" d="M256,337.5c-146.1,0-146.3-143.7-146.1-146.8c4.8-76.5,68.4-137,146.1-137s141.3,60.5,146.1,137
	C402.3,193.8,402.1,337.5,256,337.5z"/>
<rect x="128.2" y="105.1" class="st3" width="250" height="260"/>
<text transform="matrix(1 0 0 1 712.7461 -29.3757)" class="st0 st4 st5">4</text>
<text transform="matrix(1 0 0 1 616.4513 270.1759)" class="st0 st4 st5">1</text>
<g>
	<rect x="131" y="94.9" class="st3" width="250" height="260"/>
	<text transform="matrix(1 0 0 1 178.147 277.3541)" class="st0 st4 st5">2</text>
</g>
<g>
	<rect x="849.2" y="-9.5" class="st3" width="250" height="260"/>
	<text transform="matrix(1 0 0 1 896.5964 173.0795)" class="st0 st4 st5">3</text>
</g>
</svg>
